<?xml version="1.0" encoding="utf-8"?>
<!-- Generator: Adobe Illustrator 20.1.0, SVG Export Plug-In . SVG Version: 6.00 Build 0)  -->
<svg version="1.1" xmlns="http://www.w3.org/2000/svg" xmlns:xlink="http://www.w3.org/1999/xlink" x="0px" y="0px"
	 viewBox="0 0 30 30" enable-background="new 0 0 30 30" xml:space="preserve">
<g id="レイヤー1">
</g>
<g id="レイヤー2">
</g>
<g id="レイヤー3">
</g>
<g id="レイヤー4">
</g>
<g id="レイヤー5">
</g>
<g id="レイヤー6">
</g>
<g id="レイヤー7">
</g>
<g id="レイヤー_9">
</g>
<g id="レイヤー_10">
</g>
<g id="レイヤー_11">
</g>
<g id="レイヤー_12">
</g>
<g id="レイヤー_13">
</g>
<g id="レイヤー_14">
</g>
<g id="レイヤー_15">
</g>
<g id="レイヤー_16">
</g>
<g id="レイヤー_17">
</g>
<g id="レイヤー_18">
</g>
<g id="レイヤー_19">
	<g>
		<g>
			<g>
				<path fill="#666666" d="M20.839,3.828c0.32,0,0.59,0.27,0.59,0.59v21.163c0,0.32-0.27,0.59-0.59,0.59H9.161
					c-0.32,0-0.59-0.27-0.59-0.59V4.419c0-0.32,0.27-0.59,0.59-0.59H20.839 M20.839,2H9.161c-1.33,0-2.419,1.088-2.419,2.419v21.163
					c0,1.33,1.088,2.419,2.419,2.419h11.678c1.33,0,2.419-1.088,2.419-2.419V4.419C23.258,3.088,22.169,2,20.839,2L20.839,2z"/>
			</g>
		</g>
		<circle fill="#666666" cx="15" cy="23.422" r="0.97"/>
		<g>
			<path fill="#666666" d="M18.898,6.677v12.915h-7.796V6.677H18.898 M20.372,5.203H9.628v15.863h10.744V5.203L20.372,5.203z"/>
		</g>
	</g>
</g>
<g id="レイヤー_20">
</g>
<g id="レイヤー_21">
</g>
<g id="レイヤー22">
</g>
<g id="レイヤー23">
</g>
<g id="レイヤー_23">
</g>
<g id="レイヤー_24">
</g>
<g id="レイヤー_25">
</g>
<g id="レイヤー_26">
</g>
<g id="レイヤー_27">
</g>
<g id="レイヤー_28">
</g>
<g id="レイヤー_29">
</g>
<g id="レイヤー_30">
</g>
<g id="レイヤー_31">
</g>
<g id="レイヤー_32">
</g>
<g id="レイヤー_33">
</g>
<g id="レイヤー_34">
</g>
<g id="レイヤー_35">
</g>
<g id="レイヤー_37">
</g>
<g id="レイヤー_36">
</g>
</svg>
